<svg width="12" height="12" viewBox="0 0 12 12" fill="none" xmlns="http://www.w3.org/2000/svg">
<path d="M8.14453 6L3.85882 6" stroke="#0F0F0F" stroke-linecap="round" stroke-linejoin="round"/>
<path d="M6.35882 4.2147L8.14453 6.00042L6.35882 7.78613" stroke="#0F0F0F" stroke-linecap="round" stroke-linejoin="round"/>
<path d="M11 6C11 4.67392 10.4732 3.40215 9.53553 2.46447C8.59785 1.52678 7.32608 1 6 1C4.67392 1 3.40215 1.52678 2.46447 2.46447C1.52679 3.40215 1 4.67392 1 6C1 7.32608 1.52679 8.59785 2.46447 9.53553C3.40215 10.4732 4.67392 11 6 11C7.32608 11 8.59785 10.4732 9.53553 9.53553C10.4732 8.59785 11 7.32608 11 6V6Z" stroke="#0F0F0F" stroke-linecap="round" stroke-linejoin="round"/>
</svg>
