<svg width="18" height="18" viewBox="0 0 18 18" fill="none" xmlns="http://www.w3.org/2000/svg">
<path d="M12.4312 9L5.57401 9" stroke="#0F0F0F" stroke-linecap="round" stroke-linejoin="round"/>
<path d="M9.57401 6.14314L12.4312 9.00028L9.57401 11.8574" stroke="#0F0F0F" stroke-linecap="round" stroke-linejoin="round"/>
<path d="M17 9C17 6.87827 16.1571 4.84344 14.6569 3.34314C13.1566 1.84285 11.1217 0.999999 9 0.999999C6.87827 0.999998 4.84344 1.84285 3.34315 3.34314C1.84285 4.84343 1 6.87827 1 9C1 11.1217 1.84285 13.1566 3.34315 14.6569C4.84344 16.1571 6.87827 17 9 17C11.1217 17 13.1566 16.1571 14.6569 14.6569C16.1571 13.1566 17 11.1217 17 9V9Z" stroke="#0F0F0F" stroke-linecap="round" stroke-linejoin="round"/>
</svg>
